# xmcd CD database file
#
# Track frame offsets:
#	150
#	22751
#	45410
#	60555
#	81403
#	103205
#	121177
#	143291
#	154582
#	173852
#
# Disc length: 2639 seconds
#
# Revision: 0
# Processed by: cddbd v1.5.2PL0 Copyright (c) Steve Scherf et al.
# Submitted via: CDex 1.51
#
DISCID=700a4d0a
DTITLE=Potty umbrella - All you know is wrong
DYEAR=2006
DGENRE=Jazz
TTITLE0=Massage
TTITLE1=Once Upon A Time
TTITLE2=Perfect Place
TTITLE3=Brand New Lies
TTITLE4=Nymph's Song
TTITLE5=Love Song
TTITLE6=Crickets
TTITLE7=Cup Of Tea
TTITLE8=Boomerang
TTITLE9=Crazy car
EXTD=YEAR: 2006
EXTT0=
EXTT1=
EXTT2=
EXTT3=
EXTT4=
EXTT5=
EXTT6=
EXTT7=
EXTT8=
EXTT9=
PLAYORDER=
